<?xml version="1.0" encoding="UTF-8"?><svg xmlns="http://www.w3.org/2000/svg" xmlns:xlink="http://www.w3.org/1999/xlink" height="325.8" preserveAspectRatio="xMidYMid meet" version="1.0" viewBox="240.0 87.1 20.0 325.8" width="20.0" zoomAndPan="magnify"><g><g><path d="M 256.347656 339.710938 C 256.226562 339.699219 256.101562 339.691406 255.976562 339.691406 L 249.652344 339.691406 L 249.449219 98.402344 C 249.449219 96.035156 250.199219 93.660156 250.617188 91.566406 C 251.105469 89.113281 251.320312 88.585938 250.894531 88.585938 C 250.46875 88.585938 249.425781 89.363281 248.632812 91.566406 C 247.921875 93.546875 247.085938 96.035156 247.085938 98.40625 L 247.253906 339.691406 L 246.363281 339.691406 C 246.25 339.691406 246.136719 339.695312 246.027344 339.707031 L 246.027344 98.402344 C 246.027344 94.871094 246.976562 91.433594 248.730469 88.585938 C 249.339844 87.601562 250.261719 87.109375 251.1875 87.109375 C 252.109375 87.109375 253.035156 87.601562 253.640625 88.585938 C 255.398438 91.433594 256.347656 94.871094 256.347656 98.402344 L 256.347656 339.710938" fill="#64e9ff"/></g><g><path d="M 249.652344 339.691406 L 247.253906 339.691406 L 247.085938 98.40625 C 247.085938 96.035156 247.921875 93.546875 248.632812 91.566406 C 249.425781 89.363281 250.46875 88.585938 250.894531 88.585938 C 251.320312 88.585938 251.105469 89.113281 250.617188 91.566406 C 250.199219 93.660156 249.449219 96.035156 249.449219 98.402344 L 249.652344 339.691406" fill="#a9f1ff"/></g><g><path d="M 240 358.046875 C 240 358.855469 240.277344 359.507812 240.621094 359.507812 C 240.964844 359.507812 241.242188 358.855469 241.242188 358.046875 C 241.242188 357.238281 240.964844 356.585938 240.621094 356.585938 C 240.277344 356.585938 240 357.238281 240 358.046875" fill="#d41e1e"/></g><path d="M 241.644531 362.375 L 242.558594 362.375 C 243.121094 362.375 243.578125 361.917969 243.578125 361.351562 L 243.578125 354.742188 C 243.578125 354.175781 243.121094 353.71875 242.558594 353.71875 L 241.644531 353.71875 C 241.078125 353.71875 240.621094 354.175781 240.621094 354.742188 L 240.621094 361.351562 C 240.621094 361.917969 241.078125 362.375 241.644531 362.375" fill="gray"/><g><path d="M 246.363281 412.894531 L 255.976562 412.894531 C 258.195312 412.894531 260 411.089844 260 408.867188 L 260 343.71875 C 260 341.492188 258.195312 339.691406 255.976562 339.691406 L 246.363281 339.691406 C 244.140625 339.691406 242.339844 341.492188 242.339844 343.71875 L 242.339844 408.867188 C 242.339844 411.089844 244.140625 412.894531 246.363281 412.894531" fill="#666"/></g><path d="M 255.976562 339.691406 C 257.179688 339.691406 258.253906 340.222656 258.992188 341.058594 C 256.671875 341.339844 254.015625 341.5 251.1875 341.5 C 248.34375 341.5 245.675781 341.339844 243.347656 341.054688 C 244.085938 340.222656 245.160156 339.691406 246.363281 339.691406 L 255.976562 339.691406" fill="gray"/><g><path d="M 246.410156 341.34375 L 246.410156 412.894531 L 247.816406 412.894531 L 247.816406 341.421875 L 246.410156 341.34375" fill="#787878"/></g><g><path d="M 247.816406 341.421875 L 248.597656 339.691406 L 247.507812 339.691406 L 246.410156 341.34375 L 247.816406 341.421875" fill="#8f8f8f"/></g><g><path d="M 255.214844 341.402344 L 254.351562 339.691406 L 255.160156 339.691406 L 256.257812 341.300781 L 255.214844 341.402344" fill="#696969"/></g><g><path d="M 256.257812 341.300781 L 256.257812 412.894531 L 255.214844 412.894531 L 255.214844 341.402344 L 256.257812 341.300781" fill="#595959"/></g><g><path d="M 260 365.773438 L 256.257812 365.773438 L 256.257812 363.03125 L 260 363.03125 L 260 365.773438 M 255.214844 365.773438 L 247.816406 365.773438 L 247.816406 363.03125 L 255.214844 363.03125 L 255.214844 365.773438 M 246.410156 365.773438 L 242.339844 365.773438 L 242.339844 363.03125 L 246.410156 363.03125 L 246.410156 365.773438" fill="#333"/></g><g><path d="M 246.410156 365.773438 L 247.816406 365.773438 L 247.816406 363.03125 L 246.410156 363.03125 Z M 246.410156 365.773438" fill="#3c3c3c"/></g><g><path d="M 255.214844 365.773438 L 256.253906 365.773438 L 256.253906 363.03125 L 255.214844 363.03125 Z M 255.214844 365.773438" fill="#2c2c2c"/></g><g><path d="M 260 370.484375 L 256.257812 370.484375 L 256.257812 367.746094 L 260 367.746094 L 260 370.484375 M 255.214844 370.484375 L 247.816406 370.484375 L 247.816406 367.746094 L 255.214844 367.746094 L 255.214844 370.484375 M 246.410156 370.484375 L 242.339844 370.484375 L 242.339844 367.746094 L 246.410156 367.746094 L 246.410156 370.484375" fill="#333"/></g><g><path d="M 246.410156 370.484375 L 247.816406 370.484375 L 247.816406 367.746094 L 246.410156 367.746094 Z M 246.410156 370.484375" fill="#3c3c3c"/></g><g><path d="M 255.214844 370.484375 L 256.253906 370.484375 L 256.253906 367.746094 L 255.214844 367.746094 Z M 255.214844 370.484375" fill="#2c2c2c"/></g><g><path d="M 260 375.195312 L 256.257812 375.195312 L 256.257812 372.457031 L 260 372.457031 L 260 375.195312 M 255.214844 375.195312 L 247.816406 375.195312 L 247.816406 372.457031 L 255.214844 372.457031 L 255.214844 375.195312 M 246.410156 375.195312 L 242.339844 375.195312 L 242.339844 372.457031 L 246.410156 372.457031 L 246.410156 375.195312" fill="#333"/></g><g><path d="M 246.410156 375.195312 L 247.816406 375.195312 L 247.816406 372.457031 L 246.410156 372.457031 Z M 246.410156 375.195312" fill="#3c3c3c"/></g><g><path d="M 255.214844 375.195312 L 256.253906 375.195312 L 256.253906 372.457031 L 255.214844 372.457031 Z M 255.214844 375.195312" fill="#2c2c2c"/></g><g><path d="M 260 379.90625 L 256.257812 379.90625 L 256.257812 377.167969 L 260 377.167969 L 260 379.90625 M 255.214844 379.90625 L 247.816406 379.90625 L 247.816406 377.167969 L 255.214844 377.167969 L 255.214844 379.90625 M 246.410156 379.90625 L 242.339844 379.90625 L 242.339844 377.167969 L 246.410156 377.167969 L 246.410156 379.90625" fill="#333"/></g><g><path d="M 246.410156 379.90625 L 247.816406 379.90625 L 247.816406 377.167969 L 246.410156 377.167969 Z M 246.410156 379.90625" fill="#3c3c3c"/></g><g><path d="M 255.214844 379.90625 L 256.253906 379.90625 L 256.253906 377.167969 L 255.214844 377.167969 Z M 255.214844 379.90625" fill="#2c2c2c"/></g><g><path d="M 260 384.621094 L 256.257812 384.621094 L 256.257812 381.882812 L 260 381.882812 L 260 384.621094 M 255.214844 384.621094 L 247.816406 384.621094 L 247.816406 381.882812 L 255.214844 381.882812 L 255.214844 384.621094 M 246.410156 384.621094 L 242.339844 384.621094 L 242.339844 381.882812 L 246.410156 381.882812 L 246.410156 384.621094" fill="#333"/></g><g><path d="M 246.410156 384.621094 L 247.816406 384.621094 L 247.816406 381.882812 L 246.410156 381.882812 Z M 246.410156 384.621094" fill="#3c3c3c"/></g><g><path d="M 255.214844 384.621094 L 256.253906 384.621094 L 256.253906 381.882812 L 255.214844 381.882812 Z M 255.214844 384.621094" fill="#2c2c2c"/></g><g><path d="M 260 389.332031 L 256.257812 389.332031 L 256.257812 386.59375 L 260 386.59375 L 260 389.332031 M 255.214844 389.332031 L 247.816406 389.332031 L 247.816406 386.59375 L 255.214844 386.59375 L 255.214844 389.332031 M 246.410156 389.332031 L 242.339844 389.332031 L 242.339844 386.59375 L 246.410156 386.59375 L 246.410156 389.332031" fill="#333"/></g><g><path d="M 246.410156 389.332031 L 247.816406 389.332031 L 247.816406 386.59375 L 246.410156 386.59375 Z M 246.410156 389.332031" fill="#3c3c3c"/></g><g><path d="M 255.214844 389.332031 L 256.253906 389.332031 L 256.253906 386.59375 L 255.214844 386.59375 Z M 255.214844 389.332031" fill="#2c2c2c"/></g><g><path d="M 260 394.042969 L 256.257812 394.042969 L 256.257812 391.304688 L 260 391.304688 L 260 394.042969 M 255.214844 394.042969 L 247.816406 394.042969 L 247.816406 391.304688 L 255.214844 391.304688 L 255.214844 394.042969 M 246.410156 394.042969 L 242.339844 394.042969 L 242.339844 391.304688 L 246.410156 391.304688 L 246.410156 394.042969" fill="#333"/></g><g><path d="M 246.410156 394.042969 L 247.816406 394.042969 L 247.816406 391.304688 L 246.410156 391.304688 Z M 246.410156 394.042969" fill="#3c3c3c"/></g><g><path d="M 255.214844 394.042969 L 256.253906 394.042969 L 256.253906 391.304688 L 255.214844 391.304688 Z M 255.214844 394.042969" fill="#2c2c2c"/></g><g><path d="M 260 398.757812 L 256.257812 398.757812 L 256.257812 396.015625 L 260 396.015625 L 260 398.757812 M 255.214844 398.757812 L 247.816406 398.757812 L 247.816406 396.015625 L 255.214844 396.015625 L 255.214844 398.757812 M 246.410156 398.757812 L 242.339844 398.757812 L 242.339844 396.015625 L 246.410156 396.015625 L 246.410156 398.757812" fill="#333"/></g><g><path d="M 246.410156 398.757812 L 247.816406 398.757812 L 247.816406 396.015625 L 246.410156 396.015625 Z M 246.410156 398.757812" fill="#3c3c3c"/></g><g><path d="M 255.214844 398.757812 L 256.253906 398.757812 L 256.253906 396.015625 L 255.214844 396.015625 Z M 255.214844 398.757812" fill="#2c2c2c"/></g><g><path d="M 260 403.46875 L 256.257812 403.46875 L 256.257812 400.730469 L 260 400.730469 L 260 403.46875 M 255.214844 403.46875 L 247.816406 403.46875 L 247.816406 400.730469 L 255.214844 400.730469 L 255.214844 403.46875 M 246.410156 403.46875 L 242.339844 403.46875 L 242.339844 400.730469 L 246.410156 400.730469 L 246.410156 403.46875" fill="#333"/></g><g><path d="M 246.410156 403.46875 L 247.816406 403.46875 L 247.816406 400.730469 L 246.410156 400.730469 Z M 246.410156 403.46875" fill="#3c3c3c"/></g><g><path d="M 255.214844 403.46875 L 256.253906 403.46875 L 256.253906 400.730469 L 255.214844 400.730469 Z M 255.214844 403.46875" fill="#2c2c2c"/></g><g><path d="M 255.214844 412.894531 L 247.816406 412.894531 L 247.816406 405.441406 L 255.214844 405.441406 L 255.214844 412.894531 M 246.410156 412.894531 L 246.363281 412.894531 C 244.140625 412.894531 242.339844 411.089844 242.339844 408.867188 L 242.339844 405.441406 L 246.410156 405.441406 L 246.410156 412.894531 M 256.257812 412.882812 L 256.257812 405.441406 L 260 405.441406 L 260 408.867188 C 260 410.996094 258.347656 412.738281 256.257812 412.882812" fill="#333"/></g><g><path d="M 246.410156 412.894531 L 247.816406 412.894531 L 247.816406 405.441406 L 246.410156 405.441406 Z M 246.410156 412.894531" fill="#3c3c3c"/></g><g><path d="M 255.976562 412.894531 L 255.214844 412.894531 L 255.214844 405.441406 L 256.257812 405.441406 L 256.257812 412.882812 C 256.164062 412.890625 256.070312 412.894531 255.976562 412.894531" fill="#2c2c2c"/></g></g></svg>